# xmcd
#
# Track frame offsets: 
#        150
#        22280
#        38881
#        67506
#        99063
#        123566
#        151520
#        186182
#        188217
#        206601
#        232952
#        258664
#
# Disc length: 3762 seconds
#
# Revision: 1
# Processed by: cddbd v1.5.2PL0 Copyright (c) Steve Scherf et al.
# Submitted via: ExactAudioCopy v0.99pb3
#
DISCID=960eb00c
DTITLE=Kenny Brown - Can't Stay Long - Money Maker
DYEAR=2011
DGENRE=Blues
TTITLE0=Skinny Woman
TTITLE1=Ms. Maybelle
TTITLE2=Walkin Blues
TTITLE3=Dr. Brown
TTITLE4=Skake Your Money Maker
TTITLE5=Laughin to Keep from Cryin
TTITLE6=Jumper on the Line
TTITLE7=(Sara Brown)
TTITLE8=Back to Mississippi
TTITLE9=Alice Mae
TTITLE10=Let's Work Together
TTITLE11=If Walls Could Talk
EXTD=YEAR: 2011
EXTT0=
EXTT1=
EXTT2=
EXTT3=
EXTT4=
EXTT5=
EXTT6=
EXTT7=
EXTT8=
EXTT9=
EXTT10=
EXTT11=
PLAYORDER=
